<svg width="19" height="19" viewBox="0 0 19 19" fill="none" xmlns="http://www.w3.org/2000/svg">
<path d="M8.80234 0.0408211C7.97852 0.129883 7.10645 0.426758 6.4125 0.857227C5.14707 1.64023 4.14512 2.89453 3.73691 4.21191C3.49941 4.97637 3.45117 5.48106 3.45117 7.26231V8.63906L3.07266 8.65391C2.75352 8.66133 2.65703 8.67988 2.47891 8.76523C2.22656 8.88027 1.98535 9.11777 1.85547 9.37383L1.7627 9.55566V13.8232V18.0908L1.85918 18.2764C1.98906 18.5213 2.23398 18.7588 2.48633 18.8813L2.69043 18.9814H9.5H16.3096L16.5137 18.8813C16.766 18.7588 17.0109 18.5213 17.1408 18.2764L17.2373 18.0908V13.8232V9.55566L17.1445 9.37383C17.0146 9.11777 16.7734 8.88027 16.5211 8.76523C16.343 8.67988 16.2465 8.66133 15.9311 8.65391L15.5488 8.63906V7.26231C15.5488 5.48106 15.5006 4.97637 15.2631 4.21191C14.8549 2.89453 13.8529 1.64023 12.5875 0.857227C11.5076 0.185547 10.1717 -0.100195 8.80234 0.0408211ZM10.1494 2.65332C10.8174 2.77207 11.4742 3.12832 11.9715 3.64043C12.4057 4.09316 12.6691 4.55332 12.851 5.17676C12.9215 5.41426 12.9289 5.56641 12.94 7.03965L12.9549 8.64648H9.5H6.04512L6.05996 7.03965C6.0748 5.2918 6.0748 5.27695 6.31973 4.68691C6.63887 3.90762 7.44043 3.12832 8.24199 2.82031C8.79863 2.60508 9.51484 2.54199 10.1494 2.65332Z" fill="#C2C2C2"/>
</svg>
