<svg width="19" height="13" viewBox="0 0 19 13" fill="none" xmlns="http://www.w3.org/2000/svg">
<g clip-path="url(#clip0_167_46)">
<path d="M1.20592 0.0485516C0.953573 0.106091 0.727206 0.217785 0.530526 0.383634C0.274471 0.600253 0.211385 0.749179 0.304159 0.928566C0.326425 0.975952 1.15767 1.64273 2.14849 2.41105C4.53463 4.25908 7.40689 6.50312 8.34205 7.25113C8.99517 7.77237 9.12506 7.86037 9.29947 7.90776C9.48131 7.95514 9.51842 7.95514 9.69654 7.90776C9.91178 7.85022 9.90435 7.85699 10.9471 7.02436C11.8229 6.32373 14.402 4.30985 16.8512 2.41105C17.842 1.64273 18.6733 0.975952 18.6956 0.928566C18.7883 0.749179 18.7253 0.600253 18.4692 0.383634C18.2651 0.211016 18.009 0.0891676 17.7456 0.0383978C17.4487 -0.0191417 1.46197 -0.0089879 1.20592 0.0485516Z" fill="#C2C2C2"/>
<path d="M0.174212 2.17074C-0.00762375 2.2689 -0.000201866 2.06582 -0.000201866 7.01759C-0.000201866 9.97918 0.0146419 11.6986 0.0369075 11.8137C0.155658 12.3891 0.667767 12.8562 1.29492 12.9645C1.56952 13.0118 17.4301 13.0118 17.7047 12.9645C18.3318 12.8562 18.8439 12.3891 18.9627 11.8137C18.985 11.6986 18.9998 9.97918 18.9998 7.01759C18.9998 2.04213 19.0072 2.26213 18.818 2.16736C18.7141 2.11659 18.4728 2.12674 18.3838 2.1809C18.2613 2.25875 13.3072 6.1105 12.1383 7.0379C11.5594 7.49483 10.9322 7.98899 10.7467 8.13792C10.2197 8.55423 9.7707 8.70654 9.28085 8.63547C8.81699 8.56777 8.6871 8.48993 7.68144 7.68437C6.52363 6.75697 1.00546 2.45844 0.652923 2.20798C0.537884 2.12674 0.292962 2.10644 0.174212 2.17074Z" fill="#C2C2C2"/>
</g>
<defs>
<clipPath id="clip0_167_46">
<rect width="19" height="13" fill="white"/>
</clipPath>
</defs>
</svg>
