<svg width="19" height="19" viewBox="0 0 19 19" fill="none" xmlns="http://www.w3.org/2000/svg">
<g clip-path="url(#clip0_167_26)">
<path d="M8.85106 -0.579118C7.49119 -0.428619 6.33668 0.0624836 5.37839 0.89815C4.52049 1.64669 4.01396 2.45067 3.75842 3.47644C3.63977 3.94774 3.63977 4.98539 3.75842 5.45669C4.0094 6.47454 4.52961 7.30229 5.37839 8.03498C6.2226 8.77163 7.17633 9.22313 8.34909 9.44096C8.89213 9.54393 10.0877 9.54393 10.6307 9.44096C11.8126 9.21917 12.739 8.77955 13.6014 8.03498C14.4502 7.30229 14.9704 6.47454 15.2214 5.45669C15.3401 4.98539 15.3401 3.94774 15.2214 3.47644C14.9704 2.45859 14.4502 1.63084 13.6014 0.89815C12.7572 0.165457 11.8674 -0.262278 10.722 -0.488027C10.3433 -0.563276 9.21156 -0.618723 8.85106 -0.579118Z" fill="#C2C2C2"/>
<path d="M5.79373 10.1855C5.47886 10.2885 4.71223 10.6409 4.31066 10.8707C1.85104 12.2806 0.326904 14.4826 0.0394163 17.0411C-0.0518496 17.857 0.00290999 18.0907 0.336031 18.3045L0.459239 18.3877H9.49H18.5208L18.644 18.3045C18.9771 18.0907 19.0318 17.857 18.9406 17.0411C18.6166 14.146 16.6635 11.6667 13.7202 10.4033C12.9809 10.0865 12.9581 10.0865 12.3923 10.2805C11.3108 10.6568 10.5943 10.7796 9.49 10.7796C8.39025 10.7796 7.65556 10.6528 6.60143 10.2845C6.12229 10.1182 6.04015 10.1063 5.79373 10.1855Z" fill="#C2C2C2"/>
</g>
<defs>
<clipPath id="clip0_167_26">
<rect width="19" height="19" fill="white"/>
</clipPath>
</defs>
</svg>
