<svg width="19" height="19" viewBox="0 0 19 19" fill="none" xmlns="http://www.w3.org/2000/svg">
<g clip-path="url(#clip0_161_84)">
<path d="M2.80171 0.048254C2.72007 0.0779419 2.60132 0.126183 2.53824 0.159582C2.39351 0.233801 1.22828 1.34708 0.879447 1.73673C0.582572 2.07442 0.304252 2.59025 0.170658 3.04669C-0.512155 5.40685 0.894291 8.89884 3.98179 12.5059C4.51246 13.1219 6.123 14.7065 6.77242 15.2483C10.2533 18.1465 13.53 19.4453 15.8679 18.8516C16.0275 18.8108 16.3466 18.6846 16.5693 18.577C17.0517 18.3395 17.2521 18.1688 18.165 17.2188C18.9072 16.4469 18.9814 16.3244 18.9814 15.8643C18.9814 15.3522 19.0111 15.3893 17.0814 13.467C15.4857 11.8787 15.3707 11.7674 15.1777 11.7043C14.8771 11.6041 14.5357 11.619 14.2685 11.7414C14.0978 11.8193 13.9234 11.9641 13.4558 12.4279C12.6839 13.1887 12.4279 13.3297 11.797 13.3297C11.4148 13.3297 11.1587 13.2481 10.706 12.9957C9.19937 12.1533 7.8857 10.9955 6.84664 9.59649C6.32339 8.88771 5.83726 8.06017 5.72964 7.70021C5.59976 7.24005 5.67769 6.66114 5.92632 6.26036C5.97828 6.17501 6.27515 5.84474 6.59058 5.52931C7.0396 5.07286 7.18062 4.90587 7.25855 4.73517C7.38101 4.46427 7.39585 4.12286 7.29566 3.82228C7.23257 3.62931 7.12124 3.51427 5.53296 1.91857C3.66265 0.0408325 3.65894 0.0371208 3.19878 0.0148544C3.05406 0.00743294 2.88706 0.0222778 2.80171 0.048254Z" fill="#C2C2C2"/>
</g>
<defs>
<clipPath id="clip0_161_84">
<rect width="19" height="19" fill="white"/>
</clipPath>
</defs>
</svg>
