<?xml version="1.0" standalone="no"?>
<!DOCTYPE svg PUBLIC "-//W3C//DTD SVG 20010904//EN"
 "http://www.w3.org/TR/2001/REC-SVG-20010904/DTD/svg10.dtd">
<svg version="1.0" xmlns="http://www.w3.org/2000/svg"
 width="512.000000pt" height="512.000000pt" viewBox="0 0 512.000000 512.000000"
 preserveAspectRatio="xMidYMid meet">

<g transform="translate(0.000000,512.000000) scale(0.100000,-0.100000)"
fill="#000000" stroke="none">
<path d="M2279 5055 c-15 -8 -75 -21 -135 -30 -60 -9 -127 -20 -149 -25 -31
-7 -42 -6 -48 6 -13 23 -44 17 -110 -22 -34 -20 -111 -54 -170 -75 -89 -32
-109 -36 -113 -24 -4 8 -16 15 -28 15 -11 0 -147 -73 -301 -163 -237 -137
-281 -166 -285 -188 -5 -27 -117 -128 -233 -209 -32 -23 -62 -51 -67 -63 -4
-12 -32 -49 -62 -82 -291 -323 -471 -698 -545 -1130 -23 -140 -24 -470 0 -620
114 -730 496 -1324 1086 -1689 148 -91 297 -160 521 -241 56 -20 200 -55 262
-64 31 -5 62 -12 69 -17 7 -4 28 -7 46 -6 19 2 52 -3 76 -9 23 -7 92 -11 155
-10 79 2 118 -1 128 -10 12 -10 22 -10 48 -1 18 7 90 14 159 16 68 2 129 6
135 10 6 3 54 15 106 26 l97 20 100 -80 c189 -151 335 -237 473 -279 84 -26
220 -28 310 -5 151 38 338 156 611 384 419 351 608 748 676 1425 13 131 17
714 5 808 -14 109 -77 150 -253 163 l-92 6 -5 37 c-3 20 -8 61 -11 91 -71 650
-484 1321 -1037 1682 -248 162 -550 279 -838 323 -62 9 -303 36 -315 34 -86
-8 -189 -9 -198 0 -15 15 -36 13 -68 -4z m136 -59 c-16 -11 -546 -316 -580
-334 -45 -24 46 39 263 180 221 144 263 167 297 168 36 0 38 -1 20 -14z m-250
-8 c-11 -6 -218 -125 -459 -265 -242 -139 -441 -252 -442 -250 -2 1 135 99
304 217 168 118 326 230 351 249 36 27 60 36 125 46 45 7 95 13 111 14 27 0
28 -1 10 -11z m492 -3 c2 -1 -176 -104 -395 -230 -476 -275 -470 -271 -457
-258 9 10 717 467 760 490 15 9 80 7 92 -2z m186 -140 l-48 -67 -554 -319
c-304 -176 -555 -318 -556 -317 -2 2 268 177 598 390 331 212 603 385 605 383
2 -2 -18 -33 -45 -70z m177 57 c0 -5 -7 -17 -15 -28 -24 -32 -17 -35 25 -9
l39 25 57 -21 56 -21 -48 -50 -49 -50 68 42 67 42 63 -26 c34 -15 99 -48 145
-73 83 -44 83 -45 65 -66 -18 -21 -18 -21 6 -4 18 12 29 13 43 6 10 -5 16 -14
13 -18 -2 -5 -76 -49 -162 -99 -87 -50 -174 -105 -193 -122 l-35 -31 60 32
c33 18 128 72 210 120 168 97 156 96 237 28 l31 -25 -134 -78 c-74 -42 -150
-91 -169 -108 -23 -20 -26 -25 -10 -16 211 124 332 188 342 182 7 -4 46 -35
85 -68 l72 -60 -32 -29 -32 -29 32 21 c17 12 35 21 39 21 5 0 25 -17 46 -37
l38 -37 -77 -80 c-43 -43 -73 -77 -68 -74 6 3 50 29 98 58 48 29 91 49 95 44
4 -5 20 -23 35 -40 l28 -31 -88 -88 c-93 -92 -94 -92 54 -5 l73 42 20 -23 c10
-13 19 -27 20 -30 0 -3 9 -16 20 -29 11 -13 20 -26 20 -30 0 -12 -580 -343
-588 -335 -12 11 36 45 236 168 106 65 192 121 192 124 0 2 -15 -4 -32 -15
-90 -54 -367 -212 -372 -212 -3 0 -6 11 -6 24 0 14 -5 37 -11 53 -10 27 -7 32
75 111 47 45 78 78 68 73 -9 -5 -56 -32 -104 -59 l-86 -50 -55 21 -56 22 97
93 97 92 -166 -95 -165 -95 -87 -6 c-48 -4 -87 -4 -87 -1 0 3 38 36 85 72 47
37 85 68 85 70 0 2 -58 -30 -129 -71 l-130 -75 -82 7 c-89 7 -89 6 -23 52 11
7 -4 1 -31 -14 l-51 -27 -59 18 -60 17 35 30 35 30 -41 -23 c-26 -15 -47 -20
-60 -15 -17 6 -15 10 19 30 55 34 60 44 5 13 -26 -15 -49 -27 -52 -27 -3 0
-17 17 -30 37 -24 35 -25 38 -9 55 16 18 16 18 0 12 -38 -14 -13 7 61 51 68
42 252 180 252 190 0 3 -74 -39 -165 -92 -91 -52 -168 -93 -171 -90 -3 3 0 31
6 63 13 60 23 74 110 147 l45 37 -53 -30 c-29 -16 -55 -30 -58 -30 -7 0 86
182 117 227 16 23 29 44 29 47 0 4 25 46 56 94 31 48 68 104 81 125 21 34 43
49 43 29z m-1390 -38 c-25 -14 -65 -37 -90 -50 l-45 -25 35 31 c37 33 105 69
130 70 8 0 -5 -12 -30 -26z m961 -441 c-5 -10 -71 -54 -148 -97 -185 -106
-229 -131 -221 -122 10 12 362 234 371 235 4 1 3 -7 -2 -16z m-1706 -54 l-40
-41 71 41 c62 36 79 41 130 40 109 -1 108 -3 -51 -133 -80 -65 -145 -120 -145
-122 0 -2 87 47 193 108 105 61 200 111 210 110 50 -3 117 -72 117 -119 0 -11
-35 -41 -95 -82 -94 -64 -126 -91 -62 -53 63 38 158 92 161 92 2 0 0 -19 -5
-41 -19 -83 -125 -263 -192 -325 -17 -17 -90 -73 -162 -124 -184 -132 -186
-136 -21 -41 49 29 90 50 91 49 5 -4 -245 -298 -253 -298 -4 0 -18 -10 -32
-21 l-25 -20 25 12 25 12 -26 -34 c-60 -78 -78 -113 -84 -157 -27 -226 -90
-317 -254 -367 -15 -5 -21 -4 -17 3 3 6 -7 4 -24 -4 -16 -9 -40 -14 -52 -12
-18 2 -4 14 62 52 47 26 94 60 105 75 l20 26 -25 -16 c-14 -9 -73 -44 -132
-77 -91 -53 -114 -62 -155 -62 -76 0 -93 8 -93 41 0 25 10 34 95 84 52 31 95
59 95 62 0 3 -17 -5 -37 -17 -21 -12 -62 -36 -92 -53 l-54 -31 6 70 c5 49 11
73 24 82 10 7 58 40 108 72 173 115 172 123 -4 21 -58 -33 -107 -59 -109 -57
-2 2 2 31 8 64 l12 60 229 167 c126 92 229 169 229 171 0 5 -53 -28 -265 -165
-93 -60 -172 -108 -174 -106 -5 5 42 157 75 247 22 58 32 71 80 104 66 46 70
56 8 19 l-46 -27 7 23 c32 101 164 318 232 379 48 43 52 49 24 35 -33 -16 -32
-14 29 64 35 45 101 122 147 171 72 76 90 90 116 90 l31 0 -39 -41z m1631
-166 c-5 -15 -107 -77 -506 -305 -114 -65 -30 -8 233 158 150 95 274 171 275
169 2 -2 1 -12 -2 -22z m-1046 -129 c0 -3 -5 -14 -10 -25 -16 -28 -32 -23 -18
6 10 22 28 35 28 19z m2809 -144 l22 -39 -41 -27 c-22 -15 -40 -29 -40 -31 0
-5 15 3 52 29 34 24 42 19 73 -41 18 -37 21 -51 12 -60 -9 -9 -9 -11 3 -6 11
4 22 -7 38 -40 l22 -45 -55 -36 c-30 -20 -55 -39 -55 -41 0 -5 6 -2 63 35 22
13 41 21 44 19 2 -3 -6 -40 -19 -83 l-23 -78 -112 -76 c-177 -119 -159 -121
37 -3 30 18 55 31 57 29 4 -3 -59 -213 -108 -364 -22 -65 -34 -90 -42 -84 -22
16 -252 111 -332 136 -224 70 -294 63 -540 -58 -139 -68 -217 -99 -321 -125
-122 -32 -389 -63 -369 -44 6 6 101 70 213 143 111 73 202 134 202 137 0 3
-15 -4 -32 -15 -18 -11 -132 -77 -253 -147 -189 -110 -226 -128 -265 -129 -45
-1 -45 -1 -47 34 -2 34 2 38 121 129 190 144 192 147 28 55 -84 -48 -155 -84
-159 -81 -13 14 19 155 49 217 55 114 156 199 310 261 89 37 104 37 47 0 -24
-16 -66 -52 -94 -81 l-50 -53 60 34 c33 18 110 62 170 97 l110 65 95 3 c52 2
130 1 172 -2 l77 -7 -52 -36 c-58 -41 -326 -248 -342 -264 -13 -13 13 1 670
382 314 181 573 330 576 330 3 1 15 -17 28 -39z m-1655 12 c3 -5 -88 -62 -202
-127 -269 -155 -278 -160 -271 -151 13 14 444 284 456 285 6 1 14 -3 17 -7z
m158 -44 c-8 -8 -17 -8 -34 0 -22 10 -21 11 12 11 26 1 31 -2 22 -11z m218 3
c0 -12 -39 -21 -58 -13 -12 5 -7 9 18 13 19 4 36 7 38 8 1 0 2 -3 2 -8z m243
-2 c-6 -6 -26 -14 -45 -18 -20 -5 -244 -129 -499 -276 -255 -147 -480 -276
-499 -287 -83 -46 35 31 469 304 l456 287 65 1 c46 0 61 -3 53 -11z m-378 -7
c-8 -7 -457 -266 -615 -356 -101 -57 18 22 274 183 209 131 298 181 320 181
17 0 26 -4 21 -8z m580 -26 c22 -16 43 -2 -222 -154 -136 -78 -208 -114 -244
-120 -28 -5 -47 -6 -42 -2 25 24 459 290 473 290 9 0 25 -6 35 -14z m-1950
-185 c-23 -23 -617 -392 -622 -387 -17 17 51 64 322 221 165 95 302 174 305
174 2 1 0 -3 -5 -8z m1382 -97 c2 -6 -17 -17 -44 -23 -26 -7 -79 -25 -117 -41
-84 -35 -79 -29 27 32 79 46 126 57 134 32z m-1267 -158 c0 -7 -1441 -909
-1444 -905 -2 2 -7 18 -10 35 l-7 32 161 92 c93 54 156 96 150 100 -6 4 6 10
29 13 56 7 147 51 195 93 23 20 239 150 481 290 467 269 445 256 445 250z
m2936 -101 c5 -28 2 -32 -58 -66 -35 -21 -64 -36 -66 -34 -2 2 2 22 9 45 9 30
25 51 53 72 43 31 52 28 62 -17z m-2841 -24 c-16 -15 -1517 -952 -1520 -949
-1 2 -5 18 -8 35 -5 27 -2 36 16 47 36 24 1512 875 1517 876 2 0 0 -4 -5 -9z
m-605 -25 c0 -2 -21 -17 -47 -34 -27 -16 -97 -59 -157 -96 -59 -37 -106 -62
-104 -54 3 7 72 52 154 100 158 92 154 90 154 84z m1290 -35 c0 -7 -99 -70
-155 -99 -28 -15 15 19 78 60 83 54 77 51 77 39z m-509 -19 c-13 -9 -391 -247
-840 -529 -568 -357 -818 -509 -823 -500 -3 7 -8 26 -10 41 -3 29 12 38 842
517 465 269 847 489 850 488 3 0 -6 -8 -19 -17z m2701 -42 c3 -17 0 -34 -6
-39 -20 -16 -220 -130 -223 -127 -2 1 3 19 10 39 10 30 28 47 107 96 52 33 98
61 101 61 4 0 9 -14 11 -30z m-2547 -59 c-25 -21 -1258 -791 -1269 -791 -6 0
-39 -7 -71 -15 -76 -20 -153 -72 -203 -138 -27 -36 -67 -69 -131 -109 -98 -61
-101 -61 -105 3 -1 30 4 33 889 545 490 283 892 514 895 514 2 0 0 -4 -5 -9z
m1785 -89 c69 -32 153 -69 188 -81 34 -13 62 -25 62 -26 0 -2 -60 -42 -134
-89 l-134 -87 -68 8 c-66 8 -111 5 -179 -11 -28 -7 -29 -7 -11 8 33 27 0 18
-51 -14 -70 -43 -463 -157 -775 -225 -42 -9 -81 -22 -87 -28 -5 -7 -18 -58
-29 -115 -11 -57 -23 -106 -26 -110 -4 -3 -55 -34 -114 -68 l-107 -63 -7 42
c-3 23 -7 72 -7 109 l-1 66 140 112 c77 62 140 114 140 117 0 2 -15 -4 -32
-15 -119 -71 -228 -132 -236 -132 -4 0 -6 28 -4 63 4 55 8 66 41 101 l36 38
-32 -16 c-18 -9 -34 -16 -36 -16 -5 0 9 121 17 146 6 21 44 44 72 44 9 0 12
-5 8 -12 -6 -10 -4 -10 8 0 9 7 82 19 171 27 370 36 632 105 886 236 85 43
122 57 145 54 17 -2 87 -30 156 -63z m780 14 c0 -8 -172 -107 -177 -102 -4 4
157 105 170 106 4 0 7 -2 7 -4z m20 -121 c0 -26 -9 -29 -48 -19 l-23 7 28 18
c37 25 43 24 43 -6z m-313 -65 l55 -12 -133 -89 -134 -88 -138 36 c-75 20
-136 37 -135 38 2 2 65 41 141 88 l137 85 76 -24 c41 -12 100 -28 131 -34z
m223 -40 c36 -5 119 -12 185 -15 130 -6 212 -24 237 -52 24 -26 31 -314 19
-728 -9 -302 -13 -354 -35 -461 -122 -580 -556 -1103 -1160 -1395 l-78 -38
-66 25 c-195 73 -372 171 -512 283 -58 46 -160 142 -160 151 0 3 18 16 40 29
22 12 40 25 40 28 0 3 -21 -7 -46 -22 l-46 -27 -29 28 c-16 15 -29 33 -29 38
0 6 41 38 90 70 81 53 92 57 108 44 9 -8 41 -35 71 -61 114 -100 319 -220 414
-242 229 -53 496 118 870 558 146 173 274 531 324 907 18 139 13 338 -12 420
-38 126 -93 175 -222 201 -35 7 -63 16 -63 19 0 4 22 19 50 34 27 15 52 32 56
38 8 13 9 13 -71 -35 l-60 -36 -147 37 c-82 20 -148 39 -148 42 0 13 267 170
290 170 14 0 54 -5 90 -10z m-2219 -45 c-16 -46 -34 -54 -39 -18 -3 19 31 63
49 63 3 0 -1 -20 -10 -45z m-2134 -1 c-3 -3 -12 -4 -19 -1 -8 3 -5 6 6 6 11 1
17 -2 13 -5z m122 2 c-8 -8 -140 -86 -144 -86 -3 0 -5 9 -5 20 0 28 66 69 114
69 22 1 37 -1 35 -3z m3396 -51 c32 -14 35 -18 23 -33 -12 -15 -11 -16 5 -3
15 12 22 10 57 -13 65 -43 184 -76 364 -102 280 -40 379 -70 440 -133 39 -39
39 -41 48 -148 11 -123 4 -416 -12 -513 -30 -185 -86 -365 -163 -531 -137
-294 -408 -574 -695 -718 l-83 -42 -37 22 c-83 50 -181 116 -242 163 -80 61
-220 186 -220 195 0 3 31 26 69 51 38 25 68 46 66 49 -2 2 -36 -15 -75 -38
-40 -22 -75 -41 -80 -41 -5 0 -27 21 -50 47 l-41 47 23 18 23 19 -28 -12 c-15
-7 -29 -10 -31 -8 -39 43 -106 145 -102 156 3 8 2 12 -3 9 -12 -8 -23 7 -76
109 l-47 89 29 24 28 24 -32 -16 -31 -16 -31 85 c-32 89 -66 242 -74 333 -4
52 -3 54 32 80 57 41 60 47 10 18 l-45 -26 0 58 c1 63 -14 314 -19 322 -8 13
14 150 30 184 23 49 49 60 180 80 206 32 504 119 670 196 72 34 73 34 120 15z
m-2140 -184 c-23 -21 -469 -291 -481 -291 -8 0 -14 3 -14 8 1 6 487 291 500
292 2 0 0 -4 -5 -9z m235 -115 c0 -5 -449 -283 -465 -288 -5 -2 -11 2 -12 7
-1 6 105 72 235 147 246 143 242 141 242 134z m-790 -136 c13 -9 13 -10 0 -10
-8 0 -22 5 -30 10 -13 9 -13 10 0 10 8 0 22 -5 30 -10z m-239 -47 c-5 -10 -21
-29 -36 -43 -15 -14 -36 -37 -47 -52 -17 -24 -5 -20 84 32 57 33 109 60 116
60 7 0 53 -21 104 -46 88 -44 90 -46 72 -64 -10 -10 -77 -68 -147 -129 -71
-61 -126 -111 -124 -111 2 0 86 47 185 105 l181 105 46 -22 c25 -12 45 -24 45
-27 0 -4 -54 -48 -120 -100 -110 -86 -153 -125 -97 -89 12 9 80 48 150 88
l128 73 42 -18 c23 -10 46 -22 50 -25 4 -4 -48 -49 -115 -100 -180 -136 -182
-136 62 5 122 71 135 73 208 43 l34 -13 -167 -130 c-92 -72 -176 -138 -188
-148 -20 -16 -20 -17 -2 -9 11 6 114 65 230 132 l210 121 28 -31 c16 -18 26
-38 23 -45 -3 -8 0 -12 7 -9 13 4 47 -44 47 -66 0 -6 -10 -20 -22 -31 l-23
-19 28 11 c15 7 29 10 32 7 9 -9 35 -141 35 -179 0 -31 -6 -40 -45 -68 -25
-18 -45 -34 -45 -36 0 -2 20 8 45 22 l45 25 -1 -69 c0 -37 -5 -93 -9 -123 -5
-30 -11 -72 -13 -92 -3 -29 -19 -53 -71 -110 -134 -146 -180 -241 -174 -364
l3 -72 -25 10 c-33 12 -196 95 -238 120 -17 11 -29 25 -26 30 4 7 2 8 -5 4 -6
-4 -32 4 -57 19 l-46 27 41 30 c23 16 41 31 41 33 0 2 -20 -8 -45 -21 -47 -27
-65 -26 -104 6 -20 18 -22 22 -10 38 13 15 12 16 -4 3 -15 -12 -22 -10 -57 14
-22 15 -40 30 -40 34 0 3 32 28 70 55 73 51 93 71 38 38 -18 -11 -54 -32 -80
-47 l-48 -27 -27 20 c-16 12 -68 61 -117 111 -81 81 -88 92 -76 108 12 15 12
16 0 5 -11 -10 -20 -6 -47 20 -18 18 -33 35 -33 39 0 4 30 31 68 60 80 63 98
79 57 54 -99 -62 -146 -87 -153 -81 -10 10 9 23 175 118 80 46 159 96 176 111
l32 29 -35 -20 c-49 -27 -298 -171 -336 -193 l-31 -19 -29 41 c-16 24 -24 43
-18 47 43 30 214 164 214 168 0 3 -15 -3 -32 -14 -223 -134 -216 -132 -251
-73 l-18 30 98 77 c147 116 148 115 -40 7 -43 -25 -79 -44 -81 -42 -2 2 -13
23 -24 46 l-21 41 107 93 c157 136 158 137 24 59 -68 -39 -126 -70 -128 -67
-2 2 12 43 32 92 91 226 169 338 266 380 46 20 61 19 49 -2z m1815 -59 c-3 -9
-6 -40 -6 -69 l0 -54 -67 -41 c-38 -23 -80 -51 -96 -62 -34 -28 -45 -17 -48
46 -2 33 2 51 12 56 8 5 55 38 104 74 94 68 111 76 101 50z m-96 2 c0 -2 -29
-22 -65 -45 -36 -22 -65 -37 -65 -33 0 4 28 24 63 45 65 38 67 39 67 33z m94
-258 l7 -106 -87 -52 c-63 -37 -89 -48 -95 -39 -13 22 -31 171 -21 181 9 9
186 126 188 124 1 -1 5 -49 8 -108z m-364 94 c0 -11 -322 -212 -338 -212 -39
0 8 36 156 122 170 99 182 104 182 90z m-1841 -58 c-15 -19 -69 -47 -69 -37 0
5 17 18 38 29 46 27 47 27 31 8z m1860 -118 c-22 -21 -295 -183 -302 -179 -5
3 -3 11 5 19 20 20 291 174 297 169 2 -3 2 -7 0 -9z m381 -177 c11 -52 20 -99
20 -106 0 -11 -113 -83 -154 -99 -11 -4 -18 5 -26 35 -6 23 -8 46 -5 51 3 6 2
10 -3 10 -5 0 -13 21 -19 46 l-10 45 86 58 c47 32 87 57 89 56 2 -2 12 -45 22
-96z m-360 -83 c0 -9 -281 -178 -287 -172 -8 8 -18 2 142 94 145 85 145 85
145 78z m424 -144 c16 -46 26 -85 25 -86 -13 -11 -148 -85 -158 -88 -9 -2 -24
27 -42 81 -16 47 -27 86 -25 88 20 20 162 101 166 95 4 -4 19 -44 34 -90z
m-364 21 c-1 -7 -356 -232 -380 -241 -5 -2 -6 5 -3 16 3 11 73 59 186 125 183
106 197 113 197 100z m440 -210 c11 -25 19 -47 18 -48 -10 -8 -166 -95 -170
-95 -3 0 -13 19 -23 42 -13 34 -14 43 -3 49 7 4 42 28 78 53 36 25 68 45 72
45 4 1 16 -20 28 -46z m-360 -30 c-1 -5 -159 -108 -353 -230 -251 -158 -353
-218 -355 -207 -2 8 2 24 10 35 11 17 670 407 691 408 4 1 7 -2 7 -6z m420
-84 c12 -23 20 -42 18 -44 -10 -8 -166 -95 -171 -95 -4 0 -16 18 -26 39 l-20
39 77 50 c42 28 83 51 89 51 7 1 22 -17 33 -40z m-870 -43 c0 -4 -124 -82
-160 -101 -42 -22 14 19 80 59 78 48 80 48 80 42z m504 -6 c-5 -5 -178 -118
-384 -250 l-375 -240 -3 32 c-2 18 2 35 10 39 7 4 175 102 373 217 319 186
413 236 379 202z m451 -82 c32 -49 36 -44 -84 -110 -79 -44 -75 -44 -106 14
l-15 26 87 56 c47 31 87 56 88 56 1 0 15 -19 30 -42z m-385 -38 c0 -9 -225
-161 -562 -379 l-98 -63 -40 14 -39 13 367 212 c202 117 368 213 370 213 1 0
2 -5 2 -10z m489 -94 c18 -19 31 -39 27 -44 -6 -11 -187 -115 -190 -110 -1 2
-12 16 -24 32 -12 16 -22 33 -22 37 0 8 159 119 170 119 4 0 21 -15 39 -34z
m-305 -174 c2 -4 -68 -60 -157 -124 l-162 -118 -59 0 c-33 0 -57 3 -53 6 9 10
411 243 419 243 4 1 9 -2 12 -7z m96 -109 c-1 -5 -37 -36 -81 -70 -72 -56 -86
-63 -127 -63 -25 0 -43 2 -41 4 11 10 234 136 241 136 5 0 8 -3 8 -7z m-639
-93 c-13 -11 -28 -20 -35 -20 -6 0 3 9 19 19 39 25 46 25 16 1z"/>
<path d="M4074 4004 c-18 -14 -18 -15 4 -4 12 6 22 13 22 15 0 8 -5 6 -26 -11z"/>
<path d="M4154 3794 c-18 -14 -18 -15 4 -4 12 6 22 13 22 15 0 8 -5 6 -26 -11z"/>
<path d="M2850 2640 l-35 -30 48 26 c26 14 47 28 47 30 0 13 -30 0 -60 -26z"/>
<path d="M4574 2784 c-18 -14 -18 -15 4 -4 12 6 22 13 22 15 0 8 -5 6 -26 -11z"/>
<path d="M3949 2569 c-19 -16 -20 -18 -4 -10 34 17 51 31 39 31 -7 0 -22 -9
-35 -21z"/>
<path d="M3983 2078 c-13 -6 -122 -144 -244 -307 -122 -163 -226 -300 -230
-306 -6 -5 -24 5 -47 27 -52 51 -111 88 -138 88 -24 0 -54 -33 -54 -59 0 -8
37 -52 82 -98 93 -93 109 -99 185 -62 65 31 146 129 267 319 60 94 138 203
173 242 67 73 97 126 87 152 -7 18 -48 20 -81 4z"/>
</g>
</svg>
