<?xml version="1.0" encoding="UTF-8"?>
<svg xmlns="http://www.w3.org/2000/svg" xmlns:xlink="http://www.w3.org/1999/xlink" width="64px" height="64px" viewBox="0 0 64 64" version="1.1">
<g id="surface1">
<path style=" stroke:none;fill-rule:nonzero;fill:rgb(0%,0%,0%);fill-opacity:1;" d="M 28.488281 0.8125 C 28.300781 0.914062 27.550781 1.074219 26.800781 1.1875 C 26.050781 1.300781 25.210938 1.4375 24.9375 1.5 C 24.550781 1.585938 24.414062 1.574219 24.335938 1.425781 C 24.175781 1.136719 23.789062 1.210938 22.960938 1.699219 C 22.539062 1.949219 21.574219 2.375 20.835938 2.636719 C 19.726562 3.039062 19.476562 3.085938 19.425781 2.9375 C 19.375 2.835938 19.226562 2.75 19.074219 2.75 C 18.9375 2.75 17.238281 3.664062 15.3125 4.789062 C 12.351562 6.5 11.800781 6.863281 11.75 7.136719 C 11.6875 7.476562 10.289062 8.738281 8.835938 9.75 C 8.4375 10.039062 8.0625 10.386719 8 10.539062 C 7.949219 10.6875 7.601562 11.148438 7.226562 11.5625 C 3.585938 15.601562 1.335938 20.289062 0.414062 25.6875 C 0.125 27.4375 0.113281 31.5625 0.414062 33.4375 C 1.835938 42.5625 6.613281 49.988281 13.988281 54.550781 C 15.835938 55.6875 17.699219 56.550781 20.5 57.5625 C 21.199219 57.8125 23 58.25 23.773438 58.363281 C 24.164062 58.425781 24.550781 58.511719 24.636719 58.574219 C 24.726562 58.625 24.988281 58.664062 25.210938 58.648438 C 25.449219 58.625 25.863281 58.6875 26.164062 58.761719 C 26.449219 58.851562 27.3125 58.898438 28.101562 58.886719 C 29.085938 58.863281 29.574219 58.898438 29.699219 59.011719 C 29.851562 59.136719 29.976562 59.136719 30.300781 59.023438 C 30.523438 58.9375 31.425781 58.851562 32.289062 58.824219 C 33.136719 58.800781 33.898438 58.75 33.976562 58.699219 C 34.050781 58.664062 34.648438 58.511719 35.300781 58.375 L 36.511719 58.125 L 37.761719 59.125 C 40.125 61.011719 41.949219 62.085938 43.675781 62.613281 C 44.726562 62.9375 46.425781 62.960938 47.550781 62.675781 C 49.4375 62.199219 51.773438 60.726562 55.1875 57.875 C 60.425781 53.488281 62.789062 48.523438 63.636719 40.0625 C 63.800781 38.425781 63.851562 31.136719 63.699219 29.960938 C 63.523438 28.601562 62.738281 28.085938 60.539062 27.925781 L 59.386719 27.851562 L 59.324219 27.386719 C 59.289062 27.136719 59.226562 26.625 59.1875 26.25 C 58.300781 18.125 53.136719 9.738281 46.226562 5.226562 C 43.125 3.199219 39.351562 1.738281 35.75 1.1875 C 34.976562 1.074219 31.960938 0.738281 31.8125 0.761719 C 30.738281 0.863281 29.449219 0.875 29.335938 0.761719 C 29.148438 0.574219 28.886719 0.601562 28.488281 0.8125 Z M 30.1875 1.550781 C 29.988281 1.6875 23.363281 5.5 22.9375 5.726562 C 22.375 6.023438 23.511719 5.238281 26.226562 3.476562 C 28.988281 1.675781 29.511719 1.386719 29.9375 1.375 C 30.386719 1.375 30.414062 1.386719 30.1875 1.550781 Z M 27.0625 1.648438 C 26.925781 1.726562 24.335938 3.210938 21.324219 4.960938 C 18.300781 6.699219 15.8125 8.113281 15.800781 8.085938 C 15.773438 8.074219 17.488281 6.851562 19.601562 5.375 C 21.699219 3.898438 23.675781 2.5 23.988281 2.261719 C 24.4375 1.925781 24.738281 1.8125 25.550781 1.6875 C 26.113281 1.601562 26.738281 1.523438 26.9375 1.511719 C 27.273438 1.511719 27.289062 1.523438 27.0625 1.648438 Z M 33.210938 1.6875 C 33.238281 1.699219 31.011719 2.988281 28.273438 4.5625 C 22.324219 8 22.398438 7.949219 22.5625 7.789062 C 22.675781 7.664062 31.523438 1.949219 32.0625 1.664062 C 32.25 1.550781 33.0625 1.574219 33.210938 1.6875 Z M 35.539062 3.4375 L 34.9375 4.273438 L 28.011719 8.261719 C 24.210938 10.460938 21.074219 12.238281 21.0625 12.226562 C 21.039062 12.199219 24.414062 10.011719 28.539062 7.351562 C 32.675781 4.699219 36.074219 2.539062 36.101562 2.5625 C 36.125 2.585938 35.875 2.976562 35.539062 3.4375 Z M 37.75 2.726562 C 37.75 2.789062 37.664062 2.9375 37.5625 3.074219 C 37.261719 3.476562 37.351562 3.511719 37.875 3.1875 L 38.363281 2.875 L 39.074219 3.136719 L 39.773438 3.398438 L 39.175781 4.023438 L 38.5625 4.648438 L 39.414062 4.125 L 40.25 3.601562 L 41.039062 3.925781 C 41.460938 4.113281 42.273438 4.523438 42.851562 4.835938 C 43.886719 5.386719 43.886719 5.398438 43.664062 5.664062 C 43.4375 5.925781 43.4375 5.925781 43.738281 5.710938 C 43.960938 5.5625 44.101562 5.550781 44.273438 5.636719 C 44.398438 5.699219 44.476562 5.8125 44.4375 5.863281 C 44.414062 5.925781 43.488281 6.476562 42.414062 7.101562 C 41.324219 7.726562 40.238281 8.414062 40 8.625 L 39.5625 9.011719 L 40.3125 8.613281 C 40.726562 8.386719 41.914062 7.710938 42.9375 7.113281 C 45.039062 5.898438 44.886719 5.914062 45.898438 6.761719 L 46.289062 7.074219 L 44.613281 8.050781 C 43.6875 8.574219 42.738281 9.1875 42.5 9.398438 C 42.210938 9.648438 42.175781 9.710938 42.375 9.601562 C 45.011719 8.050781 46.523438 7.25 46.648438 7.324219 C 46.738281 7.375 47.226562 7.761719 47.710938 8.175781 L 48.613281 8.925781 L 48.210938 9.289062 L 47.8125 9.648438 L 48.210938 9.386719 C 48.425781 9.238281 48.648438 9.125 48.699219 9.125 C 48.761719 9.125 49.011719 9.335938 49.273438 9.585938 L 49.75 10.050781 L 48.789062 11.050781 C 48.25 11.585938 47.875 12.011719 47.9375 11.976562 C 48.011719 11.9375 48.5625 11.613281 49.164062 11.25 C 49.761719 10.886719 50.300781 10.636719 50.351562 10.699219 C 50.398438 10.761719 50.601562 10.988281 50.789062 11.199219 L 51.136719 11.585938 L 50.039062 12.6875 C 48.875 13.835938 48.863281 13.835938 50.710938 12.75 L 51.625 12.226562 L 51.875 12.511719 C 52 12.675781 52.113281 12.851562 52.125 12.886719 C 52.125 12.925781 52.238281 13.085938 52.375 13.25 C 52.511719 13.414062 52.625 13.574219 52.625 13.625 C 52.625 13.773438 45.375 17.914062 45.273438 17.8125 C 45.125 17.675781 45.726562 17.25 48.226562 15.710938 C 49.550781 14.898438 50.625 14.199219 50.625 14.164062 C 50.625 14.136719 50.4375 14.210938 50.226562 14.351562 C 49.101562 15.023438 45.636719 17 45.574219 17 C 45.539062 17 45.5 16.863281 45.5 16.699219 C 45.5 16.523438 45.4375 16.238281 45.363281 16.039062 C 45.238281 15.699219 45.273438 15.636719 46.300781 14.648438 C 46.886719 14.085938 47.273438 13.675781 47.148438 13.738281 C 47.039062 13.800781 46.449219 14.136719 45.851562 14.476562 L 44.773438 15.101562 L 44.085938 14.835938 L 43.386719 14.5625 L 44.601562 13.398438 L 45.8125 12.25 L 43.738281 13.4375 L 41.675781 14.625 L 40.585938 14.699219 C 39.988281 14.75 39.5 14.75 39.5 14.710938 C 39.5 14.675781 39.976562 14.261719 40.5625 13.8125 C 41.148438 13.351562 41.625 12.960938 41.625 12.9375 C 41.625 12.914062 40.898438 13.3125 40.011719 13.824219 L 38.386719 14.761719 L 37.363281 14.675781 C 36.25 14.585938 36.25 14.601562 37.074219 14.023438 C 37.210938 13.9375 37.023438 14.011719 36.6875 14.199219 L 36.050781 14.539062 L 35.3125 14.3125 L 34.5625 14.101562 L 35.4375 13.351562 L 34.925781 13.636719 C 34.601562 13.824219 34.335938 13.886719 34.175781 13.824219 C 33.960938 13.75 33.988281 13.699219 34.414062 13.449219 C 35.101562 13.023438 35.164062 12.898438 34.476562 13.289062 C 34.148438 13.476562 33.863281 13.625 33.824219 13.625 C 33.789062 13.625 33.613281 13.414062 33.449219 13.164062 C 33.148438 12.726562 33.136719 12.6875 33.335938 12.476562 C 33.539062 12.25 33.539062 12.25 33.335938 12.324219 C 32.863281 12.5 33.175781 12.238281 34.101562 11.6875 C 34.949219 11.164062 37.25 9.4375 37.25 9.3125 C 37.25 9.273438 36.324219 9.800781 35.1875 10.460938 C 34.050781 11.113281 33.085938 11.625 33.050781 11.585938 C 33.011719 11.550781 33.050781 11.199219 33.125 10.800781 C 33.289062 10.050781 33.414062 9.875 34.5 8.960938 L 35.0625 8.5 L 34.398438 8.875 C 34.039062 9.074219 33.710938 9.25 33.675781 9.25 C 33.585938 9.25 34.75 6.976562 35.136719 6.414062 C 35.335938 6.125 35.5 5.863281 35.5 5.824219 C 35.5 5.773438 35.8125 5.25 36.199219 4.648438 C 36.585938 4.050781 37.050781 3.351562 37.210938 3.085938 C 37.476562 2.664062 37.75 2.476562 37.75 2.726562 Z M 20.375 3.199219 C 20.0625 3.375 19.5625 3.664062 19.25 3.824219 L 18.6875 4.136719 L 19.125 3.75 C 19.585938 3.335938 20.4375 2.886719 20.75 2.875 C 20.851562 2.875 20.6875 3.023438 20.375 3.199219 Z M 32.386719 8.710938 C 32.324219 8.835938 31.5 9.386719 30.539062 9.925781 C 28.226562 11.25 27.675781 11.5625 27.773438 11.449219 C 27.898438 11.300781 32.300781 8.523438 32.414062 8.511719 C 32.460938 8.5 32.449219 8.601562 32.386719 8.710938 Z M 11.0625 9.386719 L 10.5625 9.898438 L 11.449219 9.386719 C 12.226562 8.9375 12.4375 8.875 13.074219 8.886719 C 14.4375 8.898438 14.425781 8.925781 12.4375 10.550781 C 11.4375 11.363281 10.625 12.050781 10.625 12.074219 C 10.625 12.101562 11.710938 11.488281 13.039062 10.726562 C 14.351562 9.960938 15.539062 9.335938 15.664062 9.351562 C 16.289062 9.386719 17.125 10.25 17.125 10.835938 C 17.125 10.976562 16.6875 11.351562 15.9375 11.863281 C 14.761719 12.664062 14.363281 13 15.164062 12.523438 C 15.949219 12.050781 17.136719 11.375 17.175781 11.375 C 17.199219 11.375 17.175781 11.613281 17.113281 11.886719 C 16.875 12.925781 15.550781 15.175781 14.710938 15.949219 C 14.5 16.164062 13.585938 16.863281 12.6875 17.5 C 10.386719 19.148438 10.363281 19.199219 12.425781 18.011719 C 13.039062 17.648438 13.550781 17.386719 13.5625 17.398438 C 13.625 17.449219 10.5 21.125 10.398438 21.125 C 10.351562 21.125 10.175781 21.25 10 21.386719 L 9.6875 21.636719 L 10 21.488281 L 10.3125 21.335938 L 9.988281 21.761719 C 9.238281 22.738281 9.011719 23.175781 8.9375 23.726562 C 8.601562 26.550781 7.8125 27.6875 5.761719 28.3125 C 5.574219 28.375 5.5 28.363281 5.550781 28.273438 C 5.585938 28.199219 5.460938 28.226562 5.25 28.324219 C 5.050781 28.4375 4.75 28.5 4.601562 28.476562 C 4.375 28.449219 4.550781 28.300781 5.375 27.824219 C 5.960938 27.5 6.550781 27.074219 6.6875 26.886719 L 6.9375 26.5625 L 6.625 26.761719 C 6.449219 26.875 5.710938 27.3125 4.976562 27.726562 C 3.835938 28.386719 3.550781 28.5 3.039062 28.5 C 2.085938 28.5 1.875 28.398438 1.875 27.988281 C 1.875 27.675781 2 27.5625 3.0625 26.9375 C 3.710938 26.550781 4.25 26.199219 4.25 26.164062 C 4.25 26.125 4.039062 26.226562 3.789062 26.375 C 3.523438 26.523438 3.011719 26.824219 2.636719 27.039062 L 1.960938 27.425781 L 2.039062 26.550781 C 2.101562 25.9375 2.175781 25.636719 2.335938 25.523438 C 2.460938 25.4375 3.0625 25.023438 3.6875 24.625 C 5.851562 23.1875 5.835938 23.085938 3.636719 24.363281 C 2.914062 24.773438 2.300781 25.101562 2.273438 25.074219 C 2.25 25.050781 2.300781 24.6875 2.375 24.273438 L 2.523438 23.523438 L 5.386719 21.4375 C 6.960938 20.289062 8.25 19.324219 8.25 19.300781 C 8.25 19.238281 7.585938 19.648438 4.9375 21.363281 C 3.773438 22.113281 2.789062 22.710938 2.761719 22.6875 C 2.699219 22.625 3.289062 20.726562 3.699219 19.601562 C 3.976562 18.875 4.101562 18.710938 4.699219 18.300781 C 5.523438 17.726562 5.574219 17.601562 4.800781 18.0625 L 4.226562 18.398438 L 4.3125 18.113281 C 4.710938 16.851562 6.363281 14.136719 7.210938 13.375 C 7.8125 12.835938 7.863281 12.761719 7.511719 12.9375 C 7.101562 13.136719 7.113281 13.113281 7.875 12.136719 C 8.3125 11.574219 9.136719 10.613281 9.710938 10 C 10.613281 9.050781 10.835938 8.875 11.164062 8.875 L 11.550781 8.875 Z M 31.449219 11.460938 C 31.386719 11.648438 30.113281 12.425781 25.125 15.273438 C 23.699219 16.085938 24.75 15.375 28.039062 13.300781 C 29.914062 12.113281 31.460938 11.164062 31.476562 11.1875 C 31.5 11.210938 31.488281 11.335938 31.449219 11.460938 Z M 18.375 13.074219 C 18.375 13.113281 18.3125 13.25 18.25 13.386719 C 18.050781 13.738281 17.851562 13.675781 18.023438 13.3125 C 18.148438 13.039062 18.375 12.875 18.375 13.074219 Z M 53.488281 14.875 L 53.761719 15.363281 L 53.25 15.699219 C 52.976562 15.886719 52.75 16.0625 52.75 16.085938 C 52.75 16.148438 52.9375 16.050781 53.398438 15.726562 C 53.824219 15.425781 53.925781 15.488281 54.3125 16.238281 C 54.539062 16.699219 54.574219 16.875 54.460938 16.988281 C 54.351562 17.101562 54.351562 17.125 54.5 17.0625 C 54.636719 17.011719 54.773438 17.148438 54.976562 17.5625 L 55.25 18.125 L 54.5625 18.574219 C 54.1875 18.824219 53.875 19.0625 53.875 19.085938 C 53.875 19.148438 53.949219 19.113281 54.664062 18.648438 C 54.9375 18.488281 55.175781 18.386719 55.210938 18.414062 C 55.238281 18.449219 55.136719 18.914062 54.976562 19.449219 L 54.6875 20.425781 L 53.289062 21.375 C 51.074219 22.863281 51.300781 22.886719 53.75 21.414062 C 54.125 21.1875 54.4375 21.023438 54.460938 21.050781 C 54.511719 21.085938 53.726562 23.710938 53.113281 25.601562 C 52.835938 26.414062 52.6875 26.726562 52.585938 26.648438 C 52.3125 26.449219 49.4375 25.261719 48.4375 24.949219 C 45.636719 24.074219 44.761719 24.164062 41.6875 25.675781 C 39.949219 26.523438 38.976562 26.914062 37.675781 27.238281 C 36.148438 27.636719 32.8125 28.023438 33.0625 27.789062 C 33.136719 27.710938 34.324219 26.914062 35.726562 26 C 37.113281 25.085938 38.25 24.324219 38.25 24.289062 C 38.25 24.25 38.0625 24.335938 37.851562 24.476562 C 37.625 24.613281 36.199219 25.4375 34.6875 26.3125 C 32.324219 27.6875 31.863281 27.914062 31.375 27.925781 C 30.8125 27.9375 30.8125 27.9375 30.789062 27.5 C 30.761719 27.074219 30.8125 27.023438 32.300781 25.886719 C 34.675781 24.085938 34.699219 24.050781 32.648438 25.199219 C 31.601562 25.800781 30.710938 26.25 30.664062 26.210938 C 30.5 26.039062 30.898438 24.273438 31.273438 23.5 C 31.960938 22.074219 33.226562 21.011719 35.148438 20.238281 C 36.261719 19.773438 36.449219 19.773438 35.738281 20.238281 C 35.4375 20.4375 34.914062 20.886719 34.5625 21.25 L 33.9375 21.914062 L 34.6875 21.488281 C 35.101562 21.261719 36.0625 20.710938 36.8125 20.273438 L 38.1875 19.460938 L 39.375 19.425781 C 40.023438 19.398438 41 19.414062 41.523438 19.449219 L 42.488281 19.539062 L 41.835938 19.988281 C 41.113281 20.5 37.761719 23.085938 37.5625 23.289062 C 37.398438 23.449219 37.726562 23.273438 45.9375 18.511719 C 49.863281 16.25 53.101562 14.386719 53.136719 14.386719 C 53.175781 14.375 53.324219 14.601562 53.488281 14.875 Z M 32.800781 14.726562 C 32.835938 14.789062 31.699219 15.5 30.273438 16.3125 C 26.914062 18.25 26.800781 18.3125 26.886719 18.199219 C 27.050781 18.023438 32.4375 14.648438 32.585938 14.636719 C 32.664062 14.625 32.761719 14.675781 32.800781 14.726562 Z M 34.773438 15.273438 C 34.675781 15.375 34.5625 15.375 34.351562 15.273438 C 34.074219 15.148438 34.085938 15.136719 34.5 15.136719 C 34.824219 15.125 34.886719 15.164062 34.773438 15.273438 Z M 37.5 15.238281 C 37.5 15.386719 37.011719 15.5 36.773438 15.398438 C 36.625 15.335938 36.6875 15.289062 37 15.238281 C 37.238281 15.1875 37.449219 15.148438 37.476562 15.136719 C 37.488281 15.136719 37.5 15.175781 37.5 15.238281 Z M 40.539062 15.261719 C 40.460938 15.335938 40.210938 15.4375 39.976562 15.488281 C 39.726562 15.550781 36.925781 17.101562 33.738281 18.9375 C 30.550781 20.773438 27.738281 22.386719 27.5 22.523438 C 26.460938 23.101562 27.9375 22.136719 33.363281 18.726562 L 39.0625 15.136719 L 39.875 15.125 C 40.449219 15.125 40.636719 15.164062 40.539062 15.261719 Z M 35.8125 15.351562 C 35.710938 15.4375 30.101562 18.675781 28.125 19.800781 C 26.863281 20.511719 28.351562 19.523438 31.550781 17.511719 C 34.164062 15.875 35.273438 15.25 35.550781 15.25 C 35.761719 15.25 35.875 15.300781 35.8125 15.351562 Z M 43.0625 15.675781 C 43.335938 15.875 43.601562 15.699219 40.289062 17.601562 C 38.585938 18.574219 37.6875 19.023438 37.238281 19.101562 C 36.886719 19.164062 36.648438 19.175781 36.710938 19.125 C 37.023438 18.824219 42.449219 15.5 42.625 15.5 C 42.738281 15.5 42.9375 15.574219 43.0625 15.675781 Z M 18.6875 17.988281 C 18.398438 18.273438 10.976562 22.886719 10.914062 22.824219 C 10.699219 22.613281 11.550781 22.023438 14.9375 20.0625 C 17 18.875 18.710938 17.886719 18.75 17.886719 C 18.773438 17.875 18.75 17.925781 18.6875 17.988281 Z M 35.960938 19.199219 C 35.988281 19.273438 35.75 19.414062 35.414062 19.488281 C 35.085938 19.574219 34.425781 19.800781 33.949219 20 C 32.898438 20.4375 32.960938 20.363281 34.289062 19.601562 C 35.273438 19.023438 35.863281 18.886719 35.960938 19.199219 Z M 20.125 21.175781 C 20.125 21.261719 2.113281 32.539062 2.074219 32.488281 C 2.050781 32.460938 1.988281 32.261719 1.949219 32.050781 L 1.863281 31.648438 L 3.875 30.5 C 5.039062 29.824219 5.824219 29.300781 5.75 29.25 C 5.675781 29.199219 5.824219 29.125 6.113281 29.085938 C 6.8125 29 7.949219 28.449219 8.550781 27.925781 C 8.835938 27.675781 11.539062 26.050781 14.5625 24.300781 C 20.398438 20.9375 20.125 21.101562 20.125 21.175781 Z M 56.824219 22.4375 C 56.886719 22.789062 56.851562 22.835938 56.101562 23.261719 C 55.664062 23.523438 55.300781 23.710938 55.273438 23.6875 C 55.25 23.664062 55.300781 23.414062 55.386719 23.125 C 55.5 22.75 55.699219 22.488281 56.050781 22.226562 C 56.585938 21.835938 56.699219 21.875 56.824219 22.4375 Z M 21.3125 22.738281 C 21.113281 22.925781 2.351562 34.636719 2.3125 34.601562 C 2.300781 34.574219 2.25 34.375 2.210938 34.164062 C 2.148438 33.824219 2.1875 33.710938 2.414062 33.574219 C 2.863281 33.273438 21.3125 22.636719 21.375 22.625 C 21.398438 22.625 21.375 22.675781 21.3125 22.738281 Z M 13.75 23.050781 C 13.75 23.074219 13.488281 23.261719 13.164062 23.476562 C 12.824219 23.675781 11.949219 24.210938 11.199219 24.675781 C 10.460938 25.136719 9.875 25.449219 9.898438 25.351562 C 9.9375 25.261719 10.800781 24.699219 11.824219 24.101562 C 13.800781 22.949219 13.75 22.976562 13.75 23.050781 Z M 29.875 23.488281 C 29.875 23.574219 28.636719 24.363281 27.9375 24.726562 C 27.585938 24.914062 28.125 24.488281 28.914062 23.976562 C 29.949219 23.300781 29.875 23.335938 29.875 23.488281 Z M 23.511719 23.726562 C 23.351562 23.835938 18.625 26.8125 13.011719 30.335938 C 5.914062 34.800781 2.789062 36.699219 2.726562 36.585938 C 2.6875 36.5 2.625 36.261719 2.601562 36.074219 C 2.5625 35.710938 2.75 35.601562 13.125 29.613281 C 18.9375 26.25 23.710938 23.5 23.75 23.511719 C 23.789062 23.511719 23.675781 23.613281 23.511719 23.726562 Z M 57.273438 24.25 C 57.3125 24.460938 57.273438 24.675781 57.199219 24.738281 C 56.949219 24.9375 54.449219 26.363281 54.414062 26.324219 C 54.386719 26.3125 54.449219 26.085938 54.539062 25.835938 C 54.664062 25.460938 54.886719 25.25 55.875 24.636719 C 56.523438 24.226562 57.101562 23.875 57.136719 23.875 C 57.1875 23.875 57.25 24.050781 57.273438 24.25 Z M 25.4375 24.988281 C 25.125 25.25 9.710938 34.875 9.574219 34.875 C 9.5 34.875 9.085938 34.960938 8.6875 35.0625 C 7.738281 35.3125 6.773438 35.960938 6.148438 36.789062 C 5.8125 37.238281 5.3125 37.648438 4.511719 38.148438 C 3.289062 38.914062 3.25 38.914062 3.199219 38.113281 C 3.1875 37.738281 3.25 37.699219 14.3125 31.300781 C 20.4375 27.761719 25.460938 24.875 25.5 24.875 C 25.523438 24.875 25.5 24.925781 25.4375 24.988281 Z M 47.75 26.101562 C 48.613281 26.5 49.664062 26.960938 50.101562 27.113281 C 50.523438 27.273438 50.875 27.425781 50.875 27.4375 C 50.875 27.460938 50.125 27.960938 49.199219 28.550781 L 47.523438 29.636719 L 46.675781 29.539062 C 45.851562 29.4375 45.289062 29.476562 44.4375 29.675781 C 44.085938 29.761719 44.074219 29.761719 44.300781 29.574219 C 44.710938 29.238281 44.300781 29.351562 43.664062 29.75 C 42.789062 30.289062 37.875 31.710938 33.976562 32.5625 C 33.449219 32.675781 32.960938 32.835938 32.886719 32.914062 C 32.824219 33 32.664062 33.636719 32.523438 34.351562 C 32.386719 35.0625 32.238281 35.675781 32.199219 35.726562 C 32.148438 35.761719 31.511719 36.148438 30.773438 36.574219 L 29.4375 37.363281 L 29.351562 36.835938 C 29.3125 36.550781 29.261719 35.9375 29.261719 35.476562 L 29.25 34.648438 L 31 33.25 C 31.960938 32.476562 32.75 31.824219 32.75 31.789062 C 32.75 31.761719 32.5625 31.835938 32.351562 31.976562 C 30.863281 32.863281 29.5 33.625 29.398438 33.625 C 29.351562 33.625 29.324219 33.273438 29.351562 32.835938 C 29.398438 32.148438 29.449219 32.011719 29.863281 31.574219 L 30.3125 31.101562 L 29.914062 31.300781 C 29.6875 31.414062 29.488281 31.5 29.460938 31.5 C 29.398438 31.5 29.574219 29.988281 29.675781 29.675781 C 29.75 29.414062 30.226562 29.125 30.574219 29.125 C 30.6875 29.125 30.726562 29.1875 30.675781 29.273438 C 30.601562 29.398438 30.625 29.398438 30.773438 29.273438 C 30.886719 29.1875 31.800781 29.039062 32.914062 28.9375 C 37.539062 28.488281 40.8125 27.625 43.988281 25.988281 C 45.050781 25.449219 45.511719 25.273438 45.800781 25.3125 C 46.011719 25.335938 46.886719 25.6875 47.75 26.101562 Z M 57.5 25.925781 C 57.5 26.023438 55.351562 27.261719 55.289062 27.199219 C 55.238281 27.148438 57.25 25.886719 57.414062 25.875 C 57.460938 25.875 57.5 25.898438 57.5 25.925781 Z M 57.75 27.4375 C 57.75 27.761719 57.636719 27.800781 57.148438 27.675781 L 56.863281 27.585938 L 57.210938 27.363281 C 57.675781 27.050781 57.75 27.0625 57.75 27.4375 Z M 53.835938 28.25 L 54.523438 28.398438 L 52.863281 29.511719 L 51.1875 30.613281 L 49.460938 30.164062 C 48.523438 29.914062 47.761719 29.699219 47.773438 29.6875 C 47.800781 29.664062 48.585938 29.175781 49.539062 28.585938 L 51.25 27.523438 L 52.199219 27.824219 C 52.710938 27.976562 53.449219 28.175781 53.835938 28.25 Z M 56.625 28.75 C 57.074219 28.8125 58.113281 28.898438 58.9375 28.9375 C 60.5625 29.011719 61.585938 29.238281 61.898438 29.585938 C 62.199219 29.914062 62.289062 33.511719 62.136719 38.6875 C 62.023438 42.460938 61.976562 43.113281 61.699219 44.449219 C 60.175781 51.699219 54.75 58.238281 47.199219 61.886719 L 46.226562 62.363281 L 45.398438 62.050781 C 42.960938 61.136719 40.75 59.914062 39 58.511719 C 38.273438 57.9375 37 56.738281 37 56.625 C 37 56.585938 37.226562 56.425781 37.5 56.261719 C 37.773438 56.113281 38 55.949219 38 55.914062 C 38 55.875 37.738281 56 37.425781 56.1875 L 36.851562 56.523438 L 36.488281 56.175781 C 36.289062 55.988281 36.125 55.761719 36.125 55.699219 C 36.125 55.625 36.636719 55.226562 37.25 54.824219 C 38.261719 54.164062 38.398438 54.113281 38.601562 54.273438 C 38.710938 54.375 39.113281 54.710938 39.488281 55.039062 C 40.914062 56.289062 43.476562 57.789062 44.664062 58.0625 C 47.523438 58.726562 50.863281 56.585938 55.539062 51.085938 C 57.363281 48.925781 58.960938 44.449219 59.585938 39.75 C 59.8125 38.011719 59.75 35.523438 59.4375 34.5 C 58.960938 32.925781 58.273438 32.3125 56.664062 31.988281 C 56.226562 31.898438 55.875 31.789062 55.875 31.75 C 55.875 31.699219 56.148438 31.511719 56.5 31.324219 C 56.835938 31.136719 57.148438 30.925781 57.199219 30.851562 C 57.300781 30.6875 57.3125 30.6875 56.3125 31.289062 L 55.5625 31.738281 L 53.726562 31.273438 C 52.699219 31.023438 51.875 30.789062 51.875 30.75 C 51.875 30.585938 55.210938 28.625 55.5 28.625 C 55.675781 28.625 56.175781 28.6875 56.625 28.75 Z M 28.886719 29.3125 C 28.6875 29.886719 28.460938 29.988281 28.398438 29.539062 C 28.363281 29.300781 28.789062 28.75 29.011719 28.75 C 29.050781 28.75 29 29 28.886719 29.3125 Z M 2.210938 29.324219 C 2.175781 29.363281 2.0625 29.375 1.976562 29.335938 C 1.875 29.300781 1.914062 29.261719 2.050781 29.261719 C 2.1875 29.25 2.261719 29.289062 2.210938 29.324219 Z M 3.738281 29.300781 C 3.636719 29.398438 1.988281 30.375 1.9375 30.375 C 1.898438 30.375 1.875 30.261719 1.875 30.125 C 1.875 29.773438 2.699219 29.261719 3.300781 29.261719 C 3.574219 29.25 3.761719 29.273438 3.738281 29.300781 Z M 46.1875 29.9375 C 46.585938 30.113281 46.625 30.164062 46.476562 30.351562 C 46.324219 30.539062 46.335938 30.550781 46.539062 30.386719 C 46.726562 30.238281 46.8125 30.261719 47.25 30.550781 C 48.0625 31.085938 49.550781 31.5 51.800781 31.824219 C 55.300781 32.324219 56.539062 32.699219 57.300781 33.488281 C 57.789062 33.976562 57.789062 34 57.898438 35.335938 C 58.039062 36.875 57.949219 40.539062 57.75 41.75 C 57.375 44.0625 56.675781 46.3125 55.710938 48.386719 C 54 52.0625 50.613281 55.5625 47.023438 57.363281 L 45.988281 57.886719 L 45.523438 57.613281 C 44.488281 56.988281 43.261719 56.164062 42.5 55.574219 C 41.5 54.8125 39.75 53.25 39.75 53.136719 C 39.75 53.101562 40.136719 52.8125 40.613281 52.5 C 41.085938 52.1875 41.460938 51.925781 41.4375 51.886719 C 41.414062 51.863281 40.988281 52.074219 40.5 52.363281 C 40 52.636719 39.5625 52.875 39.5 52.875 C 39.4375 52.875 39.164062 52.613281 38.875 52.289062 L 38.363281 51.699219 L 38.648438 51.476562 L 38.9375 51.238281 L 38.585938 51.386719 C 38.398438 51.476562 38.226562 51.511719 38.199219 51.488281 C 37.710938 50.949219 36.875 49.675781 36.925781 49.539062 C 36.960938 49.4375 36.949219 49.386719 36.886719 49.425781 C 36.738281 49.523438 36.601562 49.335938 35.9375 48.0625 L 35.351562 46.949219 L 35.710938 46.648438 L 36.0625 46.351562 L 35.664062 46.550781 L 35.273438 46.75 L 34.886719 45.6875 C 34.488281 44.574219 34.0625 42.664062 33.960938 41.523438 C 33.914062 40.875 33.925781 40.851562 34.363281 40.523438 C 35.074219 40.011719 35.113281 39.9375 34.488281 40.300781 L 33.925781 40.625 L 33.925781 39.898438 C 33.9375 39.113281 33.75 35.976562 33.6875 35.875 C 33.585938 35.710938 33.863281 34 34.0625 33.574219 C 34.351562 32.960938 34.675781 32.824219 36.3125 32.574219 C 38.886719 32.175781 42.613281 31.085938 44.6875 30.125 C 45.585938 29.699219 45.601562 29.699219 46.1875 29.9375 Z M 19.4375 32.238281 C 19.148438 32.5 13.574219 35.875 13.425781 35.875 C 13.324219 35.875 13.25 35.835938 13.25 35.773438 C 13.261719 35.699219 19.335938 32.136719 19.5 32.125 C 19.523438 32.125 19.5 32.175781 19.4375 32.238281 Z M 22.375 33.675781 C 22.375 33.738281 16.761719 37.210938 16.5625 37.273438 C 16.5 37.300781 16.425781 37.25 16.414062 37.1875 C 16.398438 37.113281 17.726562 36.289062 19.351562 35.351562 C 22.425781 33.5625 22.375 33.585938 22.375 33.675781 Z M 12.5 35.375 C 12.664062 35.488281 12.664062 35.5 12.5 35.5 C 12.398438 35.5 12.226562 35.4375 12.125 35.375 C 11.960938 35.261719 11.960938 35.25 12.125 35.25 C 12.226562 35.25 12.398438 35.3125 12.5 35.375 Z M 9.511719 35.960938 C 9.449219 36.085938 9.25 36.324219 9.0625 36.5 C 8.875 36.675781 8.613281 36.960938 8.476562 37.148438 C 8.261719 37.449219 8.414062 37.398438 9.523438 36.75 C 10.238281 36.335938 10.886719 36 10.976562 36 C 11.0625 36 11.636719 36.261719 12.273438 36.574219 C 13.375 37.125 13.398438 37.148438 13.175781 37.375 C 13.050781 37.5 12.210938 38.226562 11.335938 38.988281 C 10.449219 39.75 9.761719 40.375 9.789062 40.375 C 9.8125 40.375 10.863281 39.789062 12.101562 39.0625 L 14.363281 37.75 L 14.9375 38.023438 C 15.25 38.175781 15.5 38.324219 15.5 38.363281 C 15.5 38.414062 14.824219 38.960938 14 39.613281 C 12.625 40.6875 12.085938 41.175781 12.789062 40.726562 C 12.9375 40.613281 13.789062 40.125 14.664062 39.625 L 16.261719 38.710938 L 16.789062 38.9375 C 17.074219 39.0625 17.363281 39.210938 17.414062 39.25 C 17.460938 39.300781 16.8125 39.863281 15.976562 40.5 C 13.726562 42.199219 13.699219 42.199219 16.75 40.4375 C 18.273438 39.550781 18.4375 39.523438 19.351562 39.898438 L 19.773438 40.0625 L 17.6875 41.6875 C 16.539062 42.585938 15.488281 43.414062 15.335938 43.539062 C 15.085938 43.738281 15.085938 43.75 15.3125 43.648438 C 15.449219 43.574219 16.738281 42.835938 18.1875 42 L 20.8125 40.488281 L 21.164062 40.875 C 21.363281 41.101562 21.488281 41.351562 21.449219 41.4375 C 21.414062 41.539062 21.449219 41.585938 21.539062 41.550781 C 21.699219 41.5 22.125 42.101562 22.125 42.375 C 22.125 42.449219 22 42.625 21.851562 42.761719 L 21.5625 43 L 21.914062 42.863281 C 22.101562 42.773438 22.273438 42.738281 22.3125 42.773438 C 22.425781 42.886719 22.75 44.539062 22.75 45.011719 C 22.75 45.398438 22.675781 45.511719 22.1875 45.863281 C 21.875 46.085938 21.625 46.289062 21.625 46.3125 C 21.625 46.335938 21.875 46.210938 22.1875 46.039062 L 22.75 45.726562 L 22.738281 46.585938 C 22.738281 47.050781 22.675781 47.75 22.625 48.125 C 22.5625 48.5 22.488281 49.023438 22.460938 49.273438 C 22.425781 49.636719 22.226562 49.9375 21.574219 50.648438 C 19.898438 52.476562 19.324219 53.664062 19.398438 55.199219 L 19.4375 56.101562 L 19.125 55.976562 C 18.710938 55.824219 16.675781 54.789062 16.148438 54.476562 C 15.9375 54.335938 15.789062 54.164062 15.824219 54.101562 C 15.875 54.011719 15.851562 54 15.761719 54.050781 C 15.6875 54.101562 15.363281 54 15.050781 53.8125 L 14.476562 53.476562 L 14.988281 53.101562 C 15.273438 52.898438 15.5 52.710938 15.5 52.6875 C 15.5 52.664062 15.25 52.789062 14.9375 52.949219 C 14.351562 53.289062 14.125 53.273438 13.636719 52.875 C 13.386719 52.648438 13.363281 52.601562 13.511719 52.398438 C 13.675781 52.210938 13.664062 52.199219 13.460938 52.363281 C 13.273438 52.511719 13.1875 52.488281 12.75 52.1875 C 12.476562 52 12.25 51.8125 12.25 51.761719 C 12.25 51.726562 12.648438 51.414062 13.125 51.074219 C 14.039062 50.4375 14.289062 50.1875 13.601562 50.601562 C 13.375 50.738281 12.925781 51 12.601562 51.1875 L 12 51.523438 L 11.664062 51.273438 C 11.460938 51.125 10.8125 50.511719 10.199219 49.886719 C 9.1875 48.875 9.101562 48.738281 9.25 48.539062 C 9.398438 48.351562 9.398438 48.335938 9.25 48.476562 C 9.113281 48.601562 9 48.550781 8.664062 48.226562 C 8.4375 48 8.25 47.789062 8.25 47.738281 C 8.25 47.6875 8.625 47.351562 9.101562 46.988281 C 10.101562 46.199219 10.324219 46 9.8125 46.3125 C 8.574219 47.085938 7.988281 47.398438 7.898438 47.324219 C 7.773438 47.199219 8.011719 47.039062 10.085938 45.851562 C 11.085938 45.273438 12.074219 44.648438 12.289062 44.460938 L 12.6875 44.101562 L 12.25 44.351562 C 11.636719 44.6875 8.523438 46.488281 8.050781 46.761719 L 7.664062 47 L 7.300781 46.488281 C 7.101562 46.1875 7 45.949219 7.074219 45.898438 C 7.613281 45.523438 9.75 43.851562 9.75 43.800781 C 9.75 43.761719 9.5625 43.835938 9.351562 43.976562 C 6.5625 45.648438 6.648438 45.625 6.210938 44.886719 L 5.988281 44.511719 L 7.210938 43.550781 C 9.050781 42.101562 9.0625 42.113281 6.710938 43.460938 C 6.175781 43.773438 5.726562 44.011719 5.699219 43.988281 C 5.675781 43.960938 5.539062 43.699219 5.398438 43.414062 L 5.136719 42.898438 L 6.476562 41.738281 C 8.4375 40.039062 8.449219 40.023438 6.773438 41 C 5.925781 41.488281 5.199219 41.875 5.175781 41.835938 C 5.148438 41.8125 5.324219 41.300781 5.574219 40.6875 C 6.710938 37.863281 7.6875 36.460938 8.898438 35.9375 C 9.476562 35.6875 9.664062 35.699219 9.511719 35.960938 Z M 32.199219 36.699219 C 32.164062 36.8125 32.125 37.199219 32.125 37.5625 L 32.125 38.238281 L 31.289062 38.75 C 30.8125 39.039062 30.289062 39.386719 30.085938 39.523438 C 29.664062 39.875 29.523438 39.738281 29.488281 38.949219 C 29.460938 38.539062 29.511719 38.3125 29.636719 38.25 C 29.738281 38.1875 30.324219 37.773438 30.9375 37.324219 C 32.113281 36.476562 32.324219 36.375 32.199219 36.699219 Z M 31 36.675781 C 31 36.699219 30.636719 36.949219 30.1875 37.238281 C 29.738281 37.511719 29.375 37.699219 29.375 37.648438 C 29.375 37.601562 29.726562 37.351562 30.164062 37.085938 C 30.976562 36.613281 31 36.601562 31 36.675781 Z M 32.175781 39.898438 L 32.261719 41.226562 L 31.175781 41.875 C 30.386719 42.335938 30.0625 42.476562 29.988281 42.363281 C 29.824219 42.085938 29.601562 40.226562 29.726562 40.101562 C 29.835938 39.988281 32.050781 38.523438 32.074219 38.550781 C 32.085938 38.5625 32.136719 39.164062 32.175781 39.898438 Z M 27.625 38.726562 C 27.625 38.863281 23.601562 41.375 23.398438 41.375 C 22.914062 41.375 23.5 40.925781 25.351562 39.851562 C 27.476562 38.613281 27.625 38.550781 27.625 38.726562 Z M 4.613281 39.449219 C 4.425781 39.6875 3.75 40.039062 3.75 39.914062 C 3.75 39.851562 3.960938 39.6875 4.226562 39.550781 C 4.800781 39.210938 4.8125 39.210938 4.613281 39.449219 Z M 27.863281 40.925781 C 27.585938 41.1875 24.175781 43.210938 24.085938 43.164062 C 24.023438 43.125 24.050781 43.023438 24.148438 42.925781 C 24.398438 42.675781 27.789062 40.75 27.863281 40.8125 C 27.886719 40.851562 27.886719 40.898438 27.863281 40.925781 Z M 32.625 43.136719 C 32.761719 43.789062 32.875 44.375 32.875 44.460938 C 32.875 44.601562 31.460938 45.5 30.949219 45.699219 C 30.8125 45.75 30.726562 45.636719 30.625 45.261719 C 30.550781 44.976562 30.523438 44.6875 30.5625 44.625 C 30.601562 44.550781 30.585938 44.5 30.523438 44.5 C 30.460938 44.5 30.363281 44.238281 30.289062 43.925781 L 30.164062 43.363281 L 31.238281 42.636719 C 31.824219 42.238281 32.324219 41.925781 32.351562 41.9375 C 32.375 41.960938 32.5 42.5 32.625 43.136719 Z M 28.125 44.175781 C 28.125 44.289062 24.613281 46.398438 24.539062 46.324219 C 24.4375 46.226562 24.3125 46.300781 26.3125 45.148438 C 28.125 44.085938 28.125 44.085938 28.125 44.175781 Z M 33.425781 45.976562 C 33.625 46.550781 33.75 47.039062 33.738281 47.050781 C 33.574219 47.1875 31.886719 48.113281 31.761719 48.148438 C 31.648438 48.175781 31.460938 47.8125 31.238281 47.136719 C 31.039062 46.550781 30.898438 46.0625 30.925781 46.039062 C 31.175781 45.789062 32.949219 44.773438 33 44.851562 C 33.050781 44.898438 33.238281 45.398438 33.425781 45.976562 Z M 28.875 45.710938 C 28.863281 45.800781 24.425781 48.613281 24.125 48.726562 C 24.0625 48.75 24.050781 48.664062 24.085938 48.523438 C 24.125 48.386719 25 47.789062 26.414062 46.960938 C 28.699219 45.636719 28.875 45.550781 28.875 45.710938 Z M 34.375 48.335938 C 34.511719 48.648438 34.613281 48.925781 34.601562 48.9375 C 34.476562 49.039062 32.523438 50.125 32.476562 50.125 C 32.4375 50.125 32.3125 49.886719 32.1875 49.601562 C 32.023438 49.175781 32.011719 49.0625 32.148438 48.988281 C 32.238281 48.9375 32.675781 48.636719 33.125 48.324219 C 33.574219 48.011719 33.976562 47.761719 34.023438 47.761719 C 34.074219 47.75 34.226562 48.011719 34.375 48.335938 Z M 29.875 48.710938 C 29.863281 48.773438 27.886719 50.0625 25.460938 51.585938 C 22.324219 53.5625 21.050781 54.3125 21.023438 54.175781 C 21 54.074219 21.050781 53.875 21.148438 53.738281 C 21.289062 53.523438 29.523438 48.648438 29.789062 48.636719 C 29.835938 48.625 29.875 48.664062 29.875 48.710938 Z M 35.125 49.761719 C 35.273438 50.050781 35.375 50.289062 35.351562 50.3125 C 35.226562 50.414062 33.273438 51.5 33.210938 51.5 C 33.164062 51.5 33.011719 51.273438 32.886719 51.011719 L 32.636719 50.523438 L 33.601562 49.898438 C 34.125 49.550781 34.636719 49.261719 34.710938 49.261719 C 34.800781 49.25 34.988281 49.476562 35.125 49.761719 Z M 24.25 50.300781 C 24.25 50.351562 22.699219 51.324219 22.25 51.5625 C 21.726562 51.835938 22.425781 51.324219 23.25 50.824219 C 24.226562 50.226562 24.25 50.226562 24.25 50.300781 Z M 30.550781 50.375 C 30.488281 50.4375 28.324219 51.851562 25.75 53.5 L 21.0625 56.5 L 21.023438 56.101562 C 21 55.875 21.050781 55.664062 21.148438 55.613281 C 21.238281 55.5625 23.335938 54.335938 25.8125 52.898438 C 29.800781 50.574219 30.976562 49.949219 30.550781 50.375 Z M 36.1875 51.398438 C 36.585938 52.011719 36.636719 51.949219 35.136719 52.773438 C 34.148438 53.324219 34.199219 53.324219 33.8125 52.601562 L 33.625 52.273438 L 34.710938 51.574219 C 35.300781 51.1875 35.800781 50.875 35.8125 50.875 C 35.824219 50.875 36 51.113281 36.1875 51.398438 Z M 31.375 51.875 C 31.375 51.988281 28.5625 53.886719 24.351562 56.613281 L 23.125 57.398438 L 22.625 57.226562 L 22.136719 57.0625 L 26.726562 54.414062 C 29.25 52.949219 31.324219 51.75 31.351562 51.75 C 31.363281 51.75 31.375 51.8125 31.375 51.875 Z M 37.488281 53.050781 C 37.710938 53.289062 37.875 53.539062 37.824219 53.601562 C 37.75 53.738281 35.488281 55.039062 35.449219 54.976562 C 35.4375 54.949219 35.300781 54.773438 35.148438 54.574219 C 35 54.375 34.875 54.164062 34.875 54.113281 C 34.875 54.011719 36.863281 52.625 37 52.625 C 37.050781 52.625 37.261719 52.8125 37.488281 53.050781 Z M 33.675781 55.226562 C 33.699219 55.273438 32.824219 55.976562 31.710938 56.773438 L 29.6875 58.25 L 28.949219 58.25 C 28.539062 58.25 28.238281 58.210938 28.289062 58.175781 C 28.398438 58.050781 33.425781 55.136719 33.523438 55.136719 C 33.574219 55.125 33.636719 55.164062 33.675781 55.226562 Z M 34.875 56.585938 C 34.863281 56.648438 34.414062 57.039062 33.863281 57.460938 C 32.960938 58.164062 32.789062 58.25 32.273438 58.25 C 31.960938 58.25 31.738281 58.226562 31.761719 58.199219 C 31.898438 58.074219 34.6875 56.5 34.773438 56.5 C 34.835938 56.5 34.875 56.539062 34.875 56.585938 Z M 26.886719 57.75 C 26.726562 57.886719 26.539062 58 26.449219 58 C 26.375 58 26.488281 57.886719 26.6875 57.761719 C 27.175781 57.449219 27.261719 57.449219 26.886719 57.75 Z M 26.886719 57.75 "/>
<path style=" stroke:none;fill-rule:nonzero;fill:rgb(0%,0%,0%);fill-opacity:1;" d="M 50.925781 13.949219 C 50.699219 14.125 50.699219 14.136719 50.976562 14 C 51.125 13.925781 51.25 13.835938 51.25 13.8125 C 51.25 13.710938 51.1875 13.738281 50.925781 13.949219 Z M 50.925781 13.949219 "/>
<path style=" stroke:none;fill-rule:nonzero;fill:rgb(0%,0%,0%);fill-opacity:1;" d="M 51.925781 16.574219 C 51.699219 16.75 51.699219 16.761719 51.976562 16.625 C 52.125 16.550781 52.25 16.460938 52.25 16.4375 C 52.25 16.335938 52.1875 16.363281 51.925781 16.574219 Z M 51.925781 16.574219 "/>
<path style=" stroke:none;fill-rule:nonzero;fill:rgb(0%,0%,0%);fill-opacity:1;" d="M 35.625 31 L 35.1875 31.375 L 35.789062 31.050781 C 36.113281 30.875 36.375 30.699219 36.375 30.675781 C 36.375 30.511719 36 30.675781 35.625 31 Z M 35.625 31 "/>
<path style=" stroke:none;fill-rule:nonzero;fill:rgb(0%,0%,0%);fill-opacity:1;" d="M 57.175781 29.199219 C 56.949219 29.375 56.949219 29.386719 57.226562 29.25 C 57.375 29.175781 57.5 29.085938 57.5 29.0625 C 57.5 28.960938 57.4375 28.988281 57.175781 29.199219 Z M 57.175781 29.199219 "/>
<path style=" stroke:none;fill-rule:nonzero;fill:rgb(0%,0%,0%);fill-opacity:1;" d="M 49.363281 31.886719 C 49.125 32.085938 49.113281 32.113281 49.3125 32.011719 C 49.738281 31.800781 49.949219 31.625 49.800781 31.625 C 49.710938 31.625 49.523438 31.738281 49.363281 31.886719 Z M 49.363281 31.886719 "/>
<path style=" stroke:none;fill-rule:nonzero;fill:rgb(0%,0%,0%);fill-opacity:1;" d="M 49.789062 38.023438 C 49.625 38.101562 48.261719 39.824219 46.738281 41.863281 C 45.210938 43.898438 43.914062 45.613281 43.863281 45.6875 C 43.789062 45.75 43.5625 45.625 43.273438 45.351562 C 42.625 44.710938 41.886719 44.25 41.550781 44.25 C 41.25 44.25 40.875 44.664062 40.875 44.988281 C 40.875 45.085938 41.335938 45.636719 41.898438 46.210938 C 43.0625 47.375 43.261719 47.449219 44.210938 46.988281 C 45.023438 46.601562 46.039062 45.375 47.550781 43 C 48.300781 41.824219 49.273438 40.460938 49.710938 39.976562 C 50.550781 39.0625 50.925781 38.398438 50.800781 38.074219 C 50.710938 37.851562 50.199219 37.824219 49.789062 38.023438 Z M 49.789062 38.023438 "/>
</g>
</svg>
